@startuml US1001_DM
'https://plantuml.com/class-diagram

skinparam classAttributeIconSize 0
hide empty attributes
hide empty methods
skinparam classBackgroundColor beige
skinparam ArrowColor #222222

package "<<aggregate>> User" {
  entity User
  class Password
  class Email
  class FullName
  class ShortName
}

entity Client <<entity>> <<root>>

package "<<aggregate>> Client" {
  entity Client
  class ClientID
  class Address
  class Name
}

class ClientID <<(V,#FF8B40) value object>>
class Address <<(V,#FF8B40) value object>>
class Name <<(V,#FF8B40) value object>>

Client --> "1" ClientID : identified by
Client --> "1" Address : has
Client --> "1" Name : has

entity User <<entity>> <<root>>

class Password <<(V,#FF8B40) value object>> {}
class FullName <<(V,#FF8B40) value object>> {}
class ShortName <<(V,#FF8B40) value object>> {}
class Email <<(V,#FF8B40) value object>> {}

User --> "1" Password : associated with a
User --> "1" FullName : characterized by
User --> "1" ShortName : characterized by
User --> "1" Email : identified by

Client --|> User

@enduml
